<svg width="1200" height="360" viewBox="0 0 1200 360" fill="none" xmlns="http://www.w3.org/2000/svg" role="img" aria-labelledby="t d">
  <title id="t">AO-CHII</title>
  <desc id="d">红黑白 Persona 5 风格个人主页头图</desc>

  <defs>
    <!-- 半调网点 -->
    <pattern id="dots" width="20" height="20" patternUnits="userSpaceOnUse">
      <circle cx="3.4" cy="3.4" r="2.2" fill="#f2f2f2" />
    </pattern>
    <!-- P5 硬阴影（无模糊，暗红偏移） -->
    <filter id="hs" x="-20%" y="-20%" width="140%" height="155%">
      <feDropShadow dx="8" dy="8" stdDeviation="0" flood-color="#5c0000" flood-opacity="1" />
    </filter>
    <filter id="hs2" x="-20%" y="-20%" width="140%" height="155%">
      <feDropShadow dx="6" dy="6" stdDeviation="0" flood-color="#0a0a0a" flood-opacity="1" />
    </filter>
  </defs>

  <!-- 背景 -->
  <rect width="1200" height="360" fill="#0a0a0a" />

  <!-- 左侧红色撕裂块（从左滑入） -->
  <g>
    <animateTransform attributeName="transform" attributeType="XML" type="translate"
      values="-360,0;0,0" keyTimes="0;1" dur="0.45s"
      calcMode="spline" keySplines="0.15 0.8 0.25 1" fill="freeze" />
    <polygon points="-60,0 430,0 402,52 440,104 396,156 434,208 390,260 428,312 310,360 -60,360" fill="#e60012" />
  </g>
  <!-- 左块右缘的暗红第二层撕裂 -->
  <g>
    <animateTransform attributeName="transform" attributeType="XML" type="translate"
      values="-360,0;0,0" keyTimes="0;1" dur="0.55s"
      calcMode="spline" keySplines="0.15 0.8 0.25 1" fill="freeze" />
    <polygon points="418,0 512,0 392,360 300,360" fill="#8a0a14" />
  </g>

  <!-- 右侧红色撕裂块（从右滑入） -->
  <g>
    <animateTransform attributeName="transform" attributeType="XML" type="translate"
      values="360,0;0,0" keyTimes="0;1" dur="0.45s"
      calcMode="spline" keySplines="0.15 0.8 0.25 1" fill="freeze" />
    <polygon points="820,0 1260,0 1260,360 700,360 736,312 714,260 751,208 729,156 786,104 764,52" fill="#e60012" />
  </g>
  <!-- 最右暗角 -->
  <g>
    <animateTransform attributeName="transform" attributeType="XML" type="translate"
      values="360,0;0,0" keyTimes="0;1" dur="0.55s"
      calcMode="spline" keySplines="0.15 0.8 0.25 1" fill="freeze" />
    <polygon points="1066,0 1260,0 1260,360 986,360" fill="#8a0a14" opacity="0.55" />
  </g>

  <!-- 半调网点 + 斜装饰线 -->
  <rect x="864" y="112" width="360" height="168" fill="url(#dots)" opacity="0.2" transform="skewX(-12)" />
  <path d="M-40 250L360 -30 M150 380L470 -10" stroke="#f2f2f2" stroke-width="9" opacity="0.15" />
  <path d="M812 384L1120 -24" stroke="#f2f2f2" stroke-width="9" opacity="0.13" />

  <!-- 爆炸星（白，脉冲） -->
  <g transform="translate(1158,64)">
    <g>
      <animateTransform attributeName="transform" attributeType="XML" type="scale"
        values="0.9;1.08;0.9" dur="2.6s" repeatCount="indefinite"
        calcMode="spline" keyTimes="0;0.5;1" keySplines="0.4 0 0.6 1;0.4 0 0.6 1" />
      <polygon points="0,-40 6.4,-15.5 28.3,-28.3 15.5,-6.4 40,0 15.5,6.4 28.3,28.3 6.4,15.5 0,40 -6.4,15.5 -28.3,28.3 -15.5,6.4 -40,0 -15.5,-6.4 -28.3,-28.3 -6.4,-15.5" fill="#f2f2f2" />
    </g>
  </g>
  <!-- 小爆炸星（红，错相脉冲） -->
  <g transform="translate(1186,256)">
    <g>
      <animateTransform attributeName="transform" attributeType="XML" type="scale"
        values="0.55;0.72;0.55" dur="3.4s" repeatCount="indefinite"
        calcMode="spline" keyTimes="0;0.5;1" keySplines="0.4 0 0.6 1;0.4 0 0.6 1" />
      <polygon points="0,-40 6.4,-15.5 28.3,-28.3 15.5,-6.4 40,0 15.5,6.4 28.3,28.3 6.4,15.5 0,40 -6.4,15.5 -28.3,28.3 -15.5,6.4 -40,0 -15.5,-6.4 -28.3,-28.3 -6.4,-15.5" fill="#e60012" />
    </g>
  </g>

  <!-- 主标签 AO-CHII（白底黑字，从左砸入带回弹） -->
  <g>
    <animateTransform attributeName="transform" attributeType="XML" type="translate"
      values="-900,0;16,0;0,0" keyTimes="0;0.82;1" dur="0.8s"
      calcMode="spline" keySplines="0.12 0.82 0.2 1;0.5 0 0.3 1" fill="freeze" />
    <polygon points="68,54 566,36 548,158 50,178" fill="#f2f2f2" filter="url(#hs)" />
    <text x="94" y="132" fill="#0a0a0a" font-family="'Arial Black',Impact,'Franklin Gothic Heavy',sans-serif" font-size="84" font-weight="900" letter-spacing="2">AO-CHII</text>
  </g>

  <!-- 身份条（红底白字，从左滑入） -->
  <g>
    <animateTransform attributeName="transform" attributeType="XML" type="translate"
      values="-900,0;0,0" keyTimes="0;1" dur="0.85s"
      calcMode="spline" keySplines="0.16 0.78 0.24 1" fill="freeze" />
    <polygon points="58,214 706,194 690,272 42,292" fill="#e60012" filter="url(#hs2)" />
    <text x="78" y="258" fill="#f2f2f2" font-family="'Arial Black',Impact,'Franklin Gothic Heavy',sans-serif" font-size="27" font-weight="900" letter-spacing="1">MODELS / VISION / AGENTS / TOOLS</text>
  </g>

  <!-- 右侧工程标签（红底白字，从右砸入带回弹） -->
  <g>
    <animateTransform attributeName="transform" attributeType="XML" type="translate"
      values="900,0;-16,0;0,0" keyTimes="0;0.82;1" dur="0.8s"
      calcMode="spline" keySplines="0.12 0.82 0.2 1;0.5 0 0.3 1" fill="freeze" />
    <polygon points="780,58 1148,40 1130,128 762,146" fill="#e60012" filter="url(#hs)" />
    <text x="910" y="118" fill="#f2f2f2" font-family="'Arial Black',Impact,'Franklin Gothic Heavy',sans-serif" font-size="62" font-weight="900" letter-spacing="3">SE</text>
  </g>

  <!-- 右侧 AI 标签（黑底白边，从右滑入） -->
  <g>
    <animateTransform attributeName="transform" attributeType="XML" type="translate"
      values="900,0;0,0" keyTimes="0;1" dur="0.9s"
      calcMode="spline" keySplines="0.16 0.78 0.24 1" fill="freeze" />
    <polygon points="828,236 1086,220 1072,288 814,304" fill="#0a0a0a" stroke="#f2f2f2" stroke-width="4" />
    <text x="898" y="282" fill="#f2f2f2" font-family="'Arial Black',Impact,sans-serif" font-size="58" font-weight="900" letter-spacing="3">AI</text>
  </g>

  <!-- 扫描线（循环上下移动） -->
  <rect x="0" y="-4" width="1200" height="2.5" fill="#f2f2f2" opacity="0.2">
    <animateTransform attributeName="transform" attributeType="XML" type="translate"
      values="0,0;0,366;0,0" dur="7s" repeatCount="indefinite"
      calcMode="spline" keyTimes="0;0.5;1" keySplines="0.4 0 0.6 1;0.4 0 0.6 1" />
  </rect>

  <!-- 底部收边 -->
  <rect x="0" y="338" width="1200" height="22" fill="#f2f2f2" />
  <polygon points="0,338 470,338 438,360 0,360" fill="#e60012" />
  <polygon points="940,338 1200,338 1200,360 908,360" fill="#8a0a14" />
</svg>
