<svg width="495" height="195" viewBox="0 0 495 195" xmlns="http://www.w3.org/2000/svg" role="img" aria-labelledby="title desc">
    <title id="title">AO-CHII language mix</title>
    <desc id="desc">Self-generated language distribution from GitHub Linguist byte counts.</desc>
    <rect width="495" height="195" fill="#0d0d0d" />
    <polygon points="0,0 260,0 220,58 0,74" fill="#d92323" />
    <polygon points="386,0 495,0 495,195 332,195" fill="#732424" opacity="0.7" />
    <path d="M-20 160L190 -20M390 214L520 20" stroke="#ffffff" stroke-width="8" opacity="0.11" />
    <text x="24" y="38" fill="#ffffff" font-family="Arial Black, Impact, sans-serif" font-size="24" font-weight="900">LANGUAGE MIX</text>
    <rect x="32" y="66" width="431" height="15" fill="#111111" stroke="#732424" stroke-width="2" />
    <rect x="32.0" y="66" width="175.8" height="15" fill="#d92323" /><rect x="207.8" y="66" width="145.2" height="15" fill="#ffffff" /><rect x="353.0" y="66" width="73.2" height="15" fill="#732424" /><rect x="426.2" y="66" width="16.5" height="15" fill="#7b7b7b" /><rect x="442.7" y="66" width="20.3" height="15" fill="#ff5555" />
    
    <g transform="translate(34,96)">
      <polygon points="0,0 200,-5 194,26 -6,31" fill="#111111" stroke="#732424" stroke-width="2" />
      <rect x="12" y="8" width="10" height="10" fill="#d92323" stroke="#d92323" stroke-width="1.5" />
      <text x="32" y="19" fill="#ffffff" font-family="Arial Black, Impact, sans-serif" font-size="13" font-weight="900">C#</text>
      <text x="178" y="19" fill="#7b7b7b" font-family="Arial Black, Impact, sans-serif" font-size="12" font-weight="900" text-anchor="end">40.8%</text>
    </g>
    <g transform="translate(260,96)">
      <polygon points="0,0 200,-5 194,26 -6,31" fill="#111111" stroke="#732424" stroke-width="2" />
      <rect x="12" y="8" width="10" height="10" fill="#ffffff" stroke="#7b7b7b" stroke-width="1.5" />
      <text x="32" y="19" fill="#ffffff" font-family="Arial Black, Impact, sans-serif" font-size="13" font-weight="900">PYTHON</text>
      <text x="178" y="19" fill="#7b7b7b" font-family="Arial Black, Impact, sans-serif" font-size="12" font-weight="900" text-anchor="end">33.7%</text>
    </g>
    <g transform="translate(34,128)">
      <polygon points="0,0 200,-5 194,26 -6,31" fill="#111111" stroke="#732424" stroke-width="2" />
      <rect x="12" y="8" width="10" height="10" fill="#732424" stroke="#732424" stroke-width="1.5" />
      <text x="32" y="19" fill="#ffffff" font-family="Arial Black, Impact, sans-serif" font-size="13" font-weight="900">VUE</text>
      <text x="178" y="19" fill="#7b7b7b" font-family="Arial Black, Impact, sans-serif" font-size="12" font-weight="900" text-anchor="end">17.0%</text>
    </g>
    <g transform="translate(260,128)">
      <polygon points="0,0 200,-5 194,26 -6,31" fill="#111111" stroke="#732424" stroke-width="2" />
      <rect x="12" y="8" width="10" height="10" fill="#7b7b7b" stroke="#7b7b7b" stroke-width="1.5" />
      <text x="32" y="19" fill="#ffffff" font-family="Arial Black, Impact, sans-serif" font-size="13" font-weight="900">JAVA</text>
      <text x="178" y="19" fill="#7b7b7b" font-family="Arial Black, Impact, sans-serif" font-size="12" font-weight="900" text-anchor="end">3.8%</text>
    </g>
    <g transform="translate(34,160)">
      <polygon points="0,0 200,-5 194,26 -6,31" fill="#111111" stroke="#732424" stroke-width="2" />
      <rect x="12" y="8" width="10" height="10" fill="#ff5555" stroke="#ff5555" stroke-width="1.5" />
      <text x="32" y="19" fill="#ffffff" font-family="Arial Black, Impact, sans-serif" font-size="13" font-weight="900">OTHER</text>
      <text x="178" y="19" fill="#7b7b7b" font-family="Arial Black, Impact, sans-serif" font-size="12" font-weight="900" text-anchor="end">4.7%</text>
    </g>
  </svg>