<svg width="495" height="195" viewBox="0 0 495 195" xmlns="http://www.w3.org/2000/svg" role="img" aria-labelledby="title desc">
    <title id="title">AO-CHII profile stats</title>
    <desc id="desc">Self-generated GitHub profile statistics.</desc>
    <rect width="495" height="195" fill="#0d0d0d" />
    <polygon points="0,0 250,0 216,58 0,74" fill="#d92323" />
    <polygon points="386,0 495,0 495,195 332,195" fill="#732424" opacity="0.7" />
    <path d="M-20 160L190 -20M390 214L520 20" stroke="#ffffff" stroke-width="8" opacity="0.11" />
    <text x="24" y="38" fill="#ffffff" font-family="Arial Black, Impact, sans-serif" font-size="24" font-weight="900">PROFILE STATS</text>
    
    <g transform="translate(34,78)">
      <polygon points="0,0 190,-6 181,46 -8,52" fill="#111111" stroke="#732424" stroke-width="2" />
      <text x="12" y="18" fill="#7b7b7b" font-family="Arial Black, Impact, sans-serif" font-size="11" font-weight="900">PUBLIC REPOS</text>
      <text x="12" y="41" fill="#ffffff" font-family="Arial Black, Impact, sans-serif" font-size="24" font-weight="900">10</text>
    </g>
    
    <g transform="translate(270,78)">
      <polygon points="0,0 190,-6 181,46 -8,52" fill="#111111" stroke="#732424" stroke-width="2" />
      <text x="12" y="18" fill="#7b7b7b" font-family="Arial Black, Impact, sans-serif" font-size="11" font-weight="900">TOTAL STARS</text>
      <text x="12" y="41" fill="#ffffff" font-family="Arial Black, Impact, sans-serif" font-size="24" font-weight="900">3</text>
    </g>
    
    <g transform="translate(34,136)">
      <polygon points="0,0 190,-6 181,46 -8,52" fill="#111111" stroke="#732424" stroke-width="2" />
      <text x="12" y="18" fill="#7b7b7b" font-family="Arial Black, Impact, sans-serif" font-size="11" font-weight="900">ACTIVE 12M</text>
      <text x="12" y="41" fill="#ffffff" font-family="Arial Black, Impact, sans-serif" font-size="24" font-weight="900">9</text>
    </g>
    
    <g transform="translate(270,136)">
      <polygon points="0,0 190,-6 181,46 -8,52" fill="#111111" stroke="#732424" stroke-width="2" />
      <text x="12" y="18" fill="#7b7b7b" font-family="Arial Black, Impact, sans-serif" font-size="11" font-weight="900">TOP LANG</text>
      <text x="12" y="41" fill="#ffffff" font-family="Arial Black, Impact, sans-serif" font-size="24" font-weight="900">PYTHON</text>
    </g>
  </svg>
